<svg id="visual" viewBox="0 0 1920 3500" width="1920" height="3500" xmlns="http://www.w3.org/2000/svg" xmlns:xlink="http://www.w3.org/1999/xlink" version="1.1"><g stroke-width="0.5" stroke-linejoin="bevel"><path d="M934.3 1574.1L1114.7 1587.1L1050.7 1374.2Z" fill="#262757" stroke="#000000"></path><path d="M1050.7 1374.2L904.3 1355.2L934.3 1574.1Z" fill="#262757" stroke="#000000"></path><path d="M1114.7 1587.1L1267 1479.2L1050.7 1374.2Z" fill="#28285c" stroke="#000000"></path><path d="M1267 1479.2L1154.7 1263.3L1050.7 1374.2Z" fill="#262757" stroke="#000000"></path><path d="M1050.7 1374.2L870.3 1285.3L904.3 1355.2Z" fill="#212242" stroke="#000000"></path><path d="M1154.7 1263.3L870.3 1285.3L1050.7 1374.2Z" fill="#28285c" stroke="#000000"></path><path d="M904.3 1355.2L730 1440.2L934.3 1574.1Z" fill="#2a2b67" stroke="#000000"></path><path d="M1149.7 1868.9L1212 1710.1L1114.7 1587.1Z" fill="#20203d" stroke="#000000"></path><path d="M1114.7 1587.1L1212 1710.1L1267 1479.2Z" fill="#232347" stroke="#000000"></path><path d="M870.3 1285.3L730 1440.2L904.3 1355.2Z" fill="#20203d" stroke="#000000"></path><path d="M870.3 1285.3L680 1333.3L730 1440.2Z" fill="#292a62" stroke="#000000"></path><path d="M759.3 1829.9L1149.7 1868.9L934.3 1574.1Z" fill="#2a2b67" stroke="#000000"></path><path d="M934.3 1574.1L1149.7 1868.9L1114.7 1587.1Z" fill="#262757" stroke="#000000"></path><path d="M1406.3 1295.3L1315 1191.3L1154.7 1263.3Z" fill="#2a2b67" stroke="#000000"></path><path d="M1069.7 986.4L831.3 1075.4L870.3 1285.3Z" fill="#1f1f38" stroke="#000000"></path><path d="M1149.7 1868.9L1286 1836.9L1212 1710.1Z" fill="#212242" stroke="#000000"></path><path d="M1549.3 1689.1L1566.3 1518.2L1267 1479.2Z" fill="#28285c" stroke="#000000"></path><path d="M1267 1479.2L1406.3 1295.3L1154.7 1263.3Z" fill="#2a2b67" stroke="#000000"></path><path d="M1566.3 1518.2L1406.3 1295.3L1267 1479.2Z" fill="#20203d" stroke="#000000"></path><path d="M572 1590.1L934.3 1574.1L730 1440.2Z" fill="#212242" stroke="#000000"></path><path d="M572 1590.1L759.3 1829.9L934.3 1574.1Z" fill="#262757" stroke="#000000"></path><path d="M1069.7 986.4L870.3 1285.3L1154.7 1263.3Z" fill="#232347" stroke="#000000"></path><path d="M870.3 1285.3L831.3 1075.4L680 1333.3Z" fill="#28285c" stroke="#000000"></path><path d="M680 1333.3L572 1590.1L730 1440.2Z" fill="#2a2b67" stroke="#000000"></path><path d="M1406.3 1295.3L1320 1123.4L1315 1191.3Z" fill="#262757" stroke="#000000"></path><path d="M1315 1191.3L1320 1123.4L1154.7 1263.3Z" fill="#262757" stroke="#000000"></path><path d="M1320 1123.4L1069.7 986.4L1154.7 1263.3Z" fill="#24254d" stroke="#000000"></path><path d="M1149.7 1868.9L1185 1992.8L1286 1836.9Z" fill="#232347" stroke="#000000"></path><path d="M1009.7 2065.8L1185 1992.8L1149.7 1868.9Z" fill="#252652" stroke="#000000"></path><path d="M1549.3 1689.1L1212 1710.1L1286 1836.9Z" fill="#1f1f38" stroke="#000000"></path><path d="M1549.3 1689.1L1267 1479.2L1212 1710.1Z" fill="#1f1f38" stroke="#000000"></path><path d="M1429.3 942.4L1352 903.5L1320 1123.4Z" fill="#212242" stroke="#000000"></path><path d="M1514.3 1874.9L1549.3 1689.1L1286 1836.9Z" fill="#262757" stroke="#000000"></path><path d="M759.3 1829.9L1009.7 2065.8L1149.7 1868.9Z" fill="#2a2b67" stroke="#000000"></path><path d="M831.3 1075.4L580 1117.4L680 1333.3Z" fill="#262757" stroke="#000000"></path><path d="M680 1333.3L376.7 1479.2L572 1590.1Z" fill="#232347" stroke="#000000"></path><path d="M480.7 848.5L580 1117.4L831.3 1075.4Z" fill="#20203d" stroke="#000000"></path><path d="M572 1590.1L569 1885.9L759.3 1829.9Z" fill="#212242" stroke="#000000"></path><path d="M759.3 1829.9L900.3 2110.8L1009.7 2065.8Z" fill="#212242" stroke="#000000"></path><path d="M1548.3 2004.8L1286 1836.9L1185 1992.8Z" fill="#262757" stroke="#000000"></path><path d="M1548.3 2004.8L1514.3 1874.9L1286 1836.9Z" fill="#262757" stroke="#000000"></path><path d="M649 2042.8L900.3 2110.8L759.3 1829.9Z" fill="#262757" stroke="#000000"></path><path d="M1009.7 2065.8L1282 2168.7L1185 1992.8Z" fill="#232347" stroke="#000000"></path><path d="M1740.7 1629.1L1566.3 1518.2L1549.3 1689.1Z" fill="#2c2c6c" stroke="#000000"></path><path d="M1740.7 1629.1L1673.7 1407.2L1566.3 1518.2Z" fill="#2a2b67" stroke="#000000"></path><path d="M1566.3 1518.2L1673.7 1407.2L1406.3 1295.3Z" fill="#292a62" stroke="#000000"></path><path d="M580 1117.4L476.7 1153.3L680 1333.3Z" fill="#1f1f38" stroke="#000000"></path><path d="M572 1590.1L391.7 1779.9L569 1885.9Z" fill="#28285c" stroke="#000000"></path><path d="M476.7 1153.3L376.7 1479.2L680 1333.3Z" fill="#232347" stroke="#000000"></path><path d="M376.7 1479.2L394.7 1682.1L572 1590.1Z" fill="#262757" stroke="#000000"></path><path d="M569 1885.9L649 2042.8L759.3 1829.9Z" fill="#24254d" stroke="#000000"></path><path d="M437.7 2048.8L649 2042.8L569 1885.9Z" fill="#2a2b67" stroke="#000000"></path><path d="M1429.3 942.4L1320 1123.4L1687.7 1106.4Z" fill="#20203d" stroke="#000000"></path><path d="M1320 1123.4L1352 903.5L1069.7 986.4Z" fill="#232347" stroke="#000000"></path><path d="M1069.7 986.4L917.3 786.5L831.3 1075.4Z" fill="#212242" stroke="#000000"></path><path d="M1687.7 1106.4L1320 1123.4L1406.3 1295.3Z" fill="#212242" stroke="#000000"></path><path d="M211.3 1673.1L391.7 1779.9L394.7 1682.1Z" fill="#28285c" stroke="#000000"></path><path d="M394.7 1682.1L391.7 1779.9L572 1590.1Z" fill="#20203d" stroke="#000000"></path><path d="M649 2042.8L864.3 2177.7L900.3 2110.8Z" fill="#232347" stroke="#000000"></path><path d="M900.3 2110.8L1005.7 2286.7L1009.7 2065.8Z" fill="#252652" stroke="#000000"></path><path d="M1005.7 2286.7L1282 2168.7L1009.7 2065.8Z" fill="#2c2c6c" stroke="#000000"></path><path d="M1126.7 768.5L917.3 786.5L1069.7 986.4Z" fill="#292a62" stroke="#000000"></path><path d="M580 1117.4L397.7 958.4L476.7 1153.3Z" fill="#212242" stroke="#000000"></path><path d="M1735.7 1817.9L1549.3 1689.1L1514.3 1874.9Z" fill="#24254d" stroke="#000000"></path><path d="M1735.7 1817.9L1740.7 1629.1L1549.3 1689.1Z" fill="#262757" stroke="#000000"></path><path d="M1282 2168.7L1548.3 2004.8L1185 1992.8Z" fill="#262757" stroke="#000000"></path><path d="M1352 903.5L1126.7 768.5L1069.7 986.4Z" fill="#2a2b67" stroke="#000000"></path><path d="M1069.7 700.6L1126.7 768.5L1201 671.6Z" fill="#2c2c6c" stroke="#000000"></path><path d="M1801.7 1202.3L1687.7 1106.4L1673.7 1407.2Z" fill="#28285c" stroke="#000000"></path><path d="M1673.7 1407.2L1687.7 1106.4L1406.3 1295.3Z" fill="#2c2c6c" stroke="#000000"></path><path d="M1654.7 2037.8L1735.7 1817.9L1514.3 1874.9Z" fill="#28285c" stroke="#000000"></path><path d="M857.3 2530.6L1005.7 2286.7L864.3 2177.7Z" fill="#24254d" stroke="#000000"></path><path d="M864.3 2177.7L1005.7 2286.7L900.3 2110.8Z" fill="#28285c" stroke="#000000"></path><path d="M144.3 1242.3L237.3 1461.2L376.7 1479.2Z" fill="#20203d" stroke="#000000"></path><path d="M376.7 1479.2L211.3 1673.1L394.7 1682.1Z" fill="#2c2c6c" stroke="#000000"></path><path d="M1201 671.6L1126.7 768.5L1352 903.5Z" fill="#292a62" stroke="#000000"></path><path d="M1126.7 768.5L1069.7 700.6L917.3 786.5Z" fill="#28285c" stroke="#000000"></path><path d="M1201 671.6L1352 903.5L1411.3 728.5Z" fill="#292a62" stroke="#000000"></path><path d="M171.3 1910.9L437.7 2048.8L391.7 1779.9Z" fill="#28285c" stroke="#000000"></path><path d="M391.7 1779.9L437.7 2048.8L569 1885.9Z" fill="#2a2b67" stroke="#000000"></path><path d="M649 2042.8L586 2267.7L864.3 2177.7Z" fill="#292a62" stroke="#000000"></path><path d="M1920 1345.2L1673.7 1407.2L1740.7 1629.1Z" fill="#232347" stroke="#000000"></path><path d="M1920 1345.2L1801.7 1202.3L1673.7 1407.2Z" fill="#2a2b67" stroke="#000000"></path><path d="M1548.3 2004.8L1654.7 2037.8L1514.3 1874.9Z" fill="#252652" stroke="#000000"></path><path d="M1534.3 2263.7L1654.7 2037.8L1548.3 2004.8Z" fill="#252652" stroke="#000000"></path><path d="M1534.3 2263.7L1548.3 2004.8L1282 2168.7Z" fill="#1f1f38" stroke="#000000"></path><path d="M480.7 848.5L397.7 958.4L580 1117.4Z" fill="#262757" stroke="#000000"></path><path d="M476.7 1153.3L144.3 1242.3L376.7 1479.2Z" fill="#24254d" stroke="#000000"></path><path d="M480.7 848.5L831.3 1075.4L586 735.5Z" fill="#252652" stroke="#000000"></path><path d="M237.3 1461.2L211.3 1673.1L376.7 1479.2Z" fill="#212242" stroke="#000000"></path><path d="M1411.3 728.5L1429.3 942.4L1782.7 841.5Z" fill="#292a62" stroke="#000000"></path><path d="M1411.3 728.5L1352 903.5L1429.3 942.4Z" fill="#2c2c6c" stroke="#000000"></path><path d="M586 735.5L831.3 1075.4L917.3 786.5Z" fill="#24254d" stroke="#000000"></path><path d="M1453.3 621.6L1411.3 728.5L1782.7 841.5Z" fill="#252652" stroke="#000000"></path><path d="M586 735.5L917.3 786.5L805.3 530.6Z" fill="#252652" stroke="#000000"></path><path d="M583 695.6L586 735.5L805.3 530.6Z" fill="#24254d" stroke="#000000"></path><path d="M437.7 2048.8L586 2267.7L649 2042.8Z" fill="#2c2c6c" stroke="#000000"></path><path d="M1920 1702.1L1920 1345.2L1740.7 1629.1Z" fill="#2c2c6c" stroke="#000000"></path><path d="M1801.7 1202.3L1920 1080.4L1687.7 1106.4Z" fill="#262757" stroke="#000000"></path><path d="M1920 1702.1L1740.7 1629.1L1735.7 1817.9Z" fill="#212242" stroke="#000000"></path><path d="M1920 1792.9L1920 1702.1L1735.7 1817.9Z" fill="#1f1f38" stroke="#000000"></path><path d="M805.3 530.6L917.3 786.5L1069.7 700.6Z" fill="#1f1f38" stroke="#000000"></path><path d="M586 735.5L583 695.6L480.7 848.5Z" fill="#20203d" stroke="#000000"></path><path d="M161.3 855.5L180.3 938.4L397.7 958.4Z" fill="#2a2b67" stroke="#000000"></path><path d="M1194 2438.6L1534.3 2263.7L1282 2168.7Z" fill="#212242" stroke="#000000"></path><path d="M1920 1959.8L1920 1792.9L1735.7 1817.9Z" fill="#2c2c6c" stroke="#000000"></path><path d="M397.7 958.4L144.3 1242.3L476.7 1153.3Z" fill="#262757" stroke="#000000"></path><path d="M237.3 1461.2L0 1613.1L211.3 1673.1Z" fill="#212242" stroke="#000000"></path><path d="M180.3 938.4L144.3 1242.3L397.7 958.4Z" fill="#2a2b67" stroke="#000000"></path><path d="M1920 1345.2L1920 1229.3L1801.7 1202.3Z" fill="#2c2c6c" stroke="#000000"></path><path d="M1920 1959.8L1735.7 1817.9L1654.7 2037.8Z" fill="#212242" stroke="#000000"></path><path d="M211.3 1673.1L171.3 1910.9L391.7 1779.9Z" fill="#252652" stroke="#000000"></path><path d="M437.7 2048.8L439.7 2347.7L586 2267.7Z" fill="#24254d" stroke="#000000"></path><path d="M0 1828.9L171.3 1910.9L211.3 1673.1Z" fill="#2c2c6c" stroke="#000000"></path><path d="M1005.7 2286.7L1194 2438.6L1282 2168.7Z" fill="#212242" stroke="#000000"></path><path d="M1065.7 2538.6L1194 2438.6L1005.7 2286.7Z" fill="#20203d" stroke="#000000"></path><path d="M1411.3 728.5L1453.3 621.6L1201 671.6Z" fill="#2a2b67" stroke="#000000"></path><path d="M790.3 467.8L805.3 530.6L1145.7 412.8Z" fill="#212242" stroke="#000000"></path><path d="M1782.7 841.5L1429.3 942.4L1687.7 1106.4Z" fill="#232347" stroke="#000000"></path><path d="M1920 1229.3L1920 1080.4L1801.7 1202.3Z" fill="#24254d" stroke="#000000"></path><path d="M1706.7 2450.6L1731.7 2185.7L1534.3 2263.7Z" fill="#20203d" stroke="#000000"></path><path d="M1534.3 2263.7L1731.7 2185.7L1654.7 2037.8Z" fill="#262757" stroke="#000000"></path><path d="M805.3 530.6L1069.7 700.6L1145.7 412.8Z" fill="#212242" stroke="#000000"></path><path d="M1920 1080.4L1782.7 841.5L1687.7 1106.4Z" fill="#20203d" stroke="#000000"></path><path d="M1731.7 2185.7L1920 1959.8L1654.7 2037.8Z" fill="#1f1f38" stroke="#000000"></path><path d="M161.3 855.5L480.7 848.5L335.7 621.6Z" fill="#212242" stroke="#000000"></path><path d="M161.3 855.5L397.7 958.4L480.7 848.5Z" fill="#252652" stroke="#000000"></path><path d="M207.3 2144.8L439.7 2347.7L437.7 2048.8Z" fill="#2a2b67" stroke="#000000"></path><path d="M857.3 2530.6L1065.7 2538.6L1005.7 2286.7Z" fill="#28285c" stroke="#000000"></path><path d="M0 1367.2L237.3 1461.2L144.3 1242.3Z" fill="#24254d" stroke="#000000"></path><path d="M0 1367.2L0 1613.1L237.3 1461.2Z" fill="#24254d" stroke="#000000"></path><path d="M0 1202.3L0 1367.2L144.3 1242.3Z" fill="#2a2b67" stroke="#000000"></path><path d="M1194 2438.6L1552.3 2397.6L1534.3 2263.7Z" fill="#292a62" stroke="#000000"></path><path d="M857.3 2530.6L864.3 2177.7L586 2267.7Z" fill="#212242" stroke="#000000"></path><path d="M1194 2438.6L1258 2592.5L1552.3 2397.6Z" fill="#232347" stroke="#000000"></path><path d="M0 2145.8L207.3 2144.8L171.3 1910.9Z" fill="#292a62" stroke="#000000"></path><path d="M171.3 1910.9L207.3 2144.8L437.7 2048.8Z" fill="#20203d" stroke="#000000"></path><path d="M634 2509.6L857.3 2530.6L586 2267.7Z" fill="#232347" stroke="#000000"></path><path d="M1145.7 412.8L1069.7 700.6L1201 671.6Z" fill="#1f1f38" stroke="#000000"></path><path d="M805.3 530.6L558 435.8L583 695.6Z" fill="#262757" stroke="#000000"></path><path d="M0 1073.4L0 1202.3L144.3 1242.3Z" fill="#212242" stroke="#000000"></path><path d="M335.7 621.6L480.7 848.5L583 695.6Z" fill="#2a2b67" stroke="#000000"></path><path d="M180.3 938.4L0 1073.4L144.3 1242.3Z" fill="#252652" stroke="#000000"></path><path d="M0 1613.1L0 1828.9L211.3 1673.1Z" fill="#24254d" stroke="#000000"></path><path d="M508.7 2488.6L634 2509.6L586 2267.7Z" fill="#292a62" stroke="#000000"></path><path d="M1245 416.8L1201 671.6L1453.3 621.6Z" fill="#24254d" stroke="#000000"></path><path d="M1245 416.8L1145.7 412.8L1201 671.6Z" fill="#212242" stroke="#000000"></path><path d="M865.3 2672.5L1133.7 2590.5L1065.7 2538.6Z" fill="#212242" stroke="#000000"></path><path d="M1065.7 2538.6L1133.7 2590.5L1194 2438.6Z" fill="#232347" stroke="#000000"></path><path d="M865.3 2672.5L1065.7 2538.6L857.3 2530.6Z" fill="#232347" stroke="#000000"></path><path d="M1569.3 359.8L1245 416.8L1453.3 621.6Z" fill="#2c2c6c" stroke="#000000"></path><path d="M1920 1080.4L1920 830.5L1782.7 841.5Z" fill="#20203d" stroke="#000000"></path><path d="M1782.7 841.5L1681.7 521.6L1453.3 621.6Z" fill="#232347" stroke="#000000"></path><path d="M0 2145.8L202.3 2240.7L207.3 2144.8Z" fill="#232347" stroke="#000000"></path><path d="M207.3 2144.8L202.3 2240.7L439.7 2347.7Z" fill="#24254d" stroke="#000000"></path><path d="M439.7 2347.7L508.7 2488.6L586 2267.7Z" fill="#28285c" stroke="#000000"></path><path d="M0 808.5L0 1073.4L180.3 938.4Z" fill="#292a62" stroke="#000000"></path><path d="M558 435.8L335.7 621.6L583 695.6Z" fill="#2a2b67" stroke="#000000"></path><path d="M1133.7 2590.5L1258 2592.5L1194 2438.6Z" fill="#28285c" stroke="#000000"></path><path d="M1706.7 2450.6L1920 2177.7L1731.7 2185.7Z" fill="#292a62" stroke="#000000"></path><path d="M1731.7 2185.7L1920 2177.7L1920 1959.8Z" fill="#28285c" stroke="#000000"></path><path d="M1706.7 2450.6L1534.3 2263.7L1552.3 2397.6Z" fill="#292a62" stroke="#000000"></path><path d="M198.3 2578.5L508.7 2488.6L439.7 2347.7Z" fill="#262757" stroke="#000000"></path><path d="M696 277.9L558 435.8L790.3 467.8Z" fill="#2c2c6c" stroke="#000000"></path><path d="M790.3 467.8L558 435.8L805.3 530.6Z" fill="#28285c" stroke="#000000"></path><path d="M1463.3 2665.5L1706.7 2450.6L1552.3 2397.6Z" fill="#2a2b67" stroke="#000000"></path><path d="M1920 621.6L1681.7 521.6L1782.7 841.5Z" fill="#252652" stroke="#000000"></path><path d="M393.7 2729.5L652 2607.5L508.7 2488.6Z" fill="#252652" stroke="#000000"></path><path d="M508.7 2488.6L652 2607.5L634 2509.6Z" fill="#20203d" stroke="#000000"></path><path d="M634 2509.6L652 2607.5L857.3 2530.6Z" fill="#1f1f38" stroke="#000000"></path><path d="M1319 2854.4L1463.3 2665.5L1258 2592.5Z" fill="#20203d" stroke="#000000"></path><path d="M652 2607.5L865.3 2672.5L857.3 2530.6Z" fill="#262757" stroke="#000000"></path><path d="M0 1828.9L0 2145.8L171.3 1910.9Z" fill="#232347" stroke="#000000"></path><path d="M202.3 2240.7L194.3 2394.6L439.7 2347.7Z" fill="#1f1f38" stroke="#000000"></path><path d="M0 2275.7L194.3 2394.6L202.3 2240.7Z" fill="#252652" stroke="#000000"></path><path d="M308.3 370.8L204.3 578.6L335.7 621.6Z" fill="#2c2c6c" stroke="#000000"></path><path d="M335.7 621.6L204.3 578.6L161.3 855.5Z" fill="#262757" stroke="#000000"></path><path d="M161.3 855.5L0 808.5L180.3 938.4Z" fill="#20203d" stroke="#000000"></path><path d="M204.3 578.6L0 808.5L161.3 855.5Z" fill="#28285c" stroke="#000000"></path><path d="M1319 2854.4L1258 2592.5L1133.7 2590.5Z" fill="#292a62" stroke="#000000"></path><path d="M1258 2592.5L1463.3 2665.5L1552.3 2397.6Z" fill="#28285c" stroke="#000000"></path><path d="M1920 830.5L1920 621.6L1782.7 841.5Z" fill="#24254d" stroke="#000000"></path><path d="M1790.7 409.8L1569.3 359.8L1681.7 521.6Z" fill="#28285c" stroke="#000000"></path><path d="M1681.7 521.6L1569.3 359.8L1453.3 621.6Z" fill="#28285c" stroke="#000000"></path><path d="M1245 416.8L1088.7 224.9L1145.7 412.8Z" fill="#212242" stroke="#000000"></path><path d="M839.3 135.9L696 277.9L790.3 467.8Z" fill="#252652" stroke="#000000"></path><path d="M1088.7 224.9L790.3 467.8L1145.7 412.8Z" fill="#292a62" stroke="#000000"></path><path d="M558 435.8L308.3 370.8L335.7 621.6Z" fill="#232347" stroke="#000000"></path><path d="M1343 128.9L1088.7 224.9L1245 416.8Z" fill="#292a62" stroke="#000000"></path><path d="M0 2145.8L0 2275.7L202.3 2240.7Z" fill="#20203d" stroke="#000000"></path><path d="M1920 621.6L1790.7 409.8L1681.7 521.6Z" fill="#292a62" stroke="#000000"></path><path d="M868.3 0L839.3 135.9L1088.7 224.9Z" fill="#212242" stroke="#000000"></path><path d="M350.7 316.8L308.3 370.8L558 435.8Z" fill="#292a62" stroke="#000000"></path><path d="M204.3 578.6L0 569.6L0 808.5Z" fill="#20203d" stroke="#000000"></path><path d="M1706.7 2450.6L1920 2516.6L1920 2177.7Z" fill="#252652" stroke="#000000"></path><path d="M1768.7 2729.5L1920 2516.6L1706.7 2450.6Z" fill="#262757" stroke="#000000"></path><path d="M426.7 237.9L558 435.8L696 277.9Z" fill="#232347" stroke="#000000"></path><path d="M426.7 237.9L350.7 316.8L558 435.8Z" fill="#28285c" stroke="#000000"></path><path d="M0 2502.6L198.3 2578.5L194.3 2394.6Z" fill="#28285c" stroke="#000000"></path><path d="M194.3 2394.6L198.3 2578.5L439.7 2347.7Z" fill="#262757" stroke="#000000"></path><path d="M547 2810.4L859.3 2881.4L865.3 2672.5Z" fill="#24254d" stroke="#000000"></path><path d="M1343 128.9L1245 416.8L1569.3 359.8Z" fill="#232347" stroke="#000000"></path><path d="M1088.7 224.9L839.3 135.9L790.3 467.8Z" fill="#2c2c6c" stroke="#000000"></path><path d="M0 481.8L204.3 578.6L308.3 370.8Z" fill="#232347" stroke="#000000"></path><path d="M0 481.8L0 569.6L204.3 578.6Z" fill="#252652" stroke="#000000"></path><path d="M198.3 2578.5L393.7 2729.5L508.7 2488.6Z" fill="#1f1f38" stroke="#000000"></path><path d="M1063.7 2922.4L1319 2854.4L1133.7 2590.5Z" fill="#252652" stroke="#000000"></path><path d="M1063.7 2922.4L1133.7 2590.5L865.3 2672.5Z" fill="#24254d" stroke="#000000"></path><path d="M1463.3 2665.5L1768.7 2729.5L1706.7 2450.6Z" fill="#232347" stroke="#000000"></path><path d="M547 2810.4L865.3 2672.5L652 2607.5Z" fill="#20203d" stroke="#000000"></path><path d="M631 0L426.7 237.9L696 277.9Z" fill="#24254d" stroke="#000000"></path><path d="M182.3 246.9L0 481.8L308.3 370.8Z" fill="#232347" stroke="#000000"></path><path d="M393.7 2729.5L547 2810.4L652 2607.5Z" fill="#232347" stroke="#000000"></path><path d="M1582.3 199.9L1343 128.9L1569.3 359.8Z" fill="#232347" stroke="#000000"></path><path d="M1691.7 222.9L1582.3 199.9L1569.3 359.8Z" fill="#252652" stroke="#000000"></path><path d="M859.3 2881.4L1063.7 2922.4L865.3 2672.5Z" fill="#28285c" stroke="#000000"></path><path d="M1920 232.9L1691.7 222.9L1790.7 409.8Z" fill="#2c2c6c" stroke="#000000"></path><path d="M1790.7 409.8L1691.7 222.9L1569.3 359.8Z" fill="#20203d" stroke="#000000"></path><path d="M1308 0L1144.7 0L1343 128.9Z" fill="#262757" stroke="#000000"></path><path d="M1526.3 2922.4L1768.7 2729.5L1463.3 2665.5Z" fill="#212242" stroke="#000000"></path><path d="M174.3 2898.4L421.7 2800.4L393.7 2729.5Z" fill="#28285c" stroke="#000000"></path><path d="M393.7 2729.5L421.7 2800.4L547 2810.4Z" fill="#24254d" stroke="#000000"></path><path d="M831.3 3169.2L1063.7 2922.4L859.3 2881.4Z" fill="#232347" stroke="#000000"></path><path d="M831.3 3169.2L1135.7 3061.2L1063.7 2922.4Z" fill="#1f1f38" stroke="#000000"></path><path d="M0 2275.7L0 2502.6L194.3 2394.6Z" fill="#262757" stroke="#000000"></path><path d="M198.3 2578.5L174.3 2898.4L393.7 2729.5Z" fill="#2c2c6c" stroke="#000000"></path><path d="M182.3 246.9L308.3 370.8L350.7 316.8Z" fill="#262757" stroke="#000000"></path><path d="M1920 621.6L1920 341.8L1790.7 409.8Z" fill="#292a62" stroke="#000000"></path><path d="M1768.7 2729.5L1920 2657.5L1920 2516.6Z" fill="#1f1f38" stroke="#000000"></path><path d="M1343 128.9L1144.7 0L1088.7 224.9Z" fill="#2c2c6c" stroke="#000000"></path><path d="M839.3 135.9L631 0L696 277.9Z" fill="#28285c" stroke="#000000"></path><path d="M1308 0L1343 128.9L1401.3 0Z" fill="#2a2b67" stroke="#000000"></path><path d="M1144.7 0L868.3 0L1088.7 224.9Z" fill="#2c2c6c" stroke="#000000"></path><path d="M1319 2854.4L1526.3 2922.4L1463.3 2665.5Z" fill="#1f1f38" stroke="#000000"></path><path d="M1768.7 2729.5L1920 2822.4L1920 2657.5Z" fill="#232347" stroke="#000000"></path><path d="M1275 3134.2L1526.3 2922.4L1319 2854.4Z" fill="#20203d" stroke="#000000"></path><path d="M362.7 0L182.3 246.9L426.7 237.9Z" fill="#2c2c6c" stroke="#000000"></path><path d="M426.7 237.9L182.3 246.9L350.7 316.8Z" fill="#20203d" stroke="#000000"></path><path d="M0 2502.6L0 2605.5L198.3 2578.5Z" fill="#2c2c6c" stroke="#000000"></path><path d="M1401.3 0L1582.3 199.9L1623.7 0Z" fill="#1f1f38" stroke="#000000"></path><path d="M1401.3 0L1343 128.9L1582.3 199.9Z" fill="#262757" stroke="#000000"></path><path d="M1623.7 0L1582.3 199.9L1691.7 222.9Z" fill="#212242" stroke="#000000"></path><path d="M1920 341.8L1920 232.9L1790.7 409.8Z" fill="#2a2b67" stroke="#000000"></path><path d="M868.3 0L631 0L839.3 135.9Z" fill="#212242" stroke="#000000"></path><path d="M831.3 3169.2L859.3 2881.4L679 3164.2Z" fill="#212242" stroke="#000000"></path><path d="M1063.7 2922.4L1135.7 3061.2L1319 2854.4Z" fill="#262757" stroke="#000000"></path><path d="M1657.7 3177.2L1739.7 2910.4L1526.3 2922.4Z" fill="#212242" stroke="#000000"></path><path d="M1526.3 2922.4L1739.7 2910.4L1768.7 2729.5Z" fill="#24254d" stroke="#000000"></path><path d="M1739.7 2910.4L1920 2822.4L1768.7 2729.5Z" fill="#2a2b67" stroke="#000000"></path><path d="M1920 0L1623.7 0L1691.7 222.9Z" fill="#20203d" stroke="#000000"></path><path d="M182.3 246.9L0 240.9L0 481.8Z" fill="#2a2b67" stroke="#000000"></path><path d="M155.3 0L0 240.9L182.3 246.9Z" fill="#28285c" stroke="#000000"></path><path d="M631 0L362.7 0L426.7 237.9Z" fill="#252652" stroke="#000000"></path><path d="M0 2605.5L174.3 2898.4L198.3 2578.5Z" fill="#212242" stroke="#000000"></path><path d="M679 3164.2L859.3 2881.4L547 2810.4Z" fill="#20203d" stroke="#000000"></path><path d="M1346 3283.1L1275 3134.2L1015.7 3346.1Z" fill="#24254d" stroke="#000000"></path><path d="M1135.7 3061.2L1275 3134.2L1319 2854.4Z" fill="#292a62" stroke="#000000"></path><path d="M679 3164.2L547 2810.4L330.7 3071.2Z" fill="#1f1f38" stroke="#000000"></path><path d="M330.7 3071.2L547 2810.4L421.7 2800.4Z" fill="#212242" stroke="#000000"></path><path d="M174.3 2898.4L330.7 3071.2L421.7 2800.4Z" fill="#2a2b67" stroke="#000000"></path><path d="M1275 3134.2L1489.3 3163.2L1526.3 2922.4Z" fill="#252652" stroke="#000000"></path><path d="M1739.7 2910.4L1920 3018.2L1920 2822.4Z" fill="#212242" stroke="#000000"></path><path d="M1462.3 3242.1L1489.3 3163.2L1275 3134.2Z" fill="#252652" stroke="#000000"></path><path d="M362.7 0L155.3 0L182.3 246.9Z" fill="#262757" stroke="#000000"></path><path d="M1920 232.9L1920 0L1691.7 222.9Z" fill="#2c2c6c" stroke="#000000"></path><path d="M1738.7 3198.1L1920 3018.2L1739.7 2910.4Z" fill="#252652" stroke="#000000"></path><path d="M0 2605.5L0 2955.4L174.3 2898.4Z" fill="#28285c" stroke="#000000"></path><path d="M174.3 2898.4L166.3 3070.2L330.7 3071.2Z" fill="#20203d" stroke="#000000"></path><path d="M1462.3 3242.1L1657.7 3177.2L1489.3 3163.2Z" fill="#24254d" stroke="#000000"></path><path d="M1489.3 3163.2L1657.7 3177.2L1526.3 2922.4Z" fill="#232347" stroke="#000000"></path><path d="M0 2955.4L166.3 3070.2L174.3 2898.4Z" fill="#252652" stroke="#000000"></path><path d="M330.7 3071.2L589 3328.1L679 3164.2Z" fill="#292a62" stroke="#000000"></path><path d="M1346 3283.1L1462.3 3242.1L1275 3134.2Z" fill="#20203d" stroke="#000000"></path><path d="M1275 3134.2L1135.7 3061.2L1015.7 3346.1Z" fill="#20203d" stroke="#000000"></path><path d="M1015.7 3346.1L1135.7 3061.2L831.3 3169.2Z" fill="#24254d" stroke="#000000"></path><path d="M1698.7 3500L1738.7 3198.1L1657.7 3177.2Z" fill="#292a62" stroke="#000000"></path><path d="M155.3 0L0 0L0 240.9Z" fill="#24254d" stroke="#000000"></path><path d="M589 3328.1L831.3 3169.2L679 3164.2Z" fill="#28285c" stroke="#000000"></path><path d="M589 3328.1L939.3 3336.1L831.3 3169.2Z" fill="#212242" stroke="#000000"></path><path d="M1920 3291.1L1738.7 3198.1L1698.7 3500Z" fill="#28285c" stroke="#000000"></path><path d="M1657.7 3177.2L1738.7 3198.1L1739.7 2910.4Z" fill="#20203d" stroke="#000000"></path><path d="M939.3 3336.1L1015.7 3346.1L831.3 3169.2Z" fill="#24254d" stroke="#000000"></path><path d="M489.7 3367.1L589 3328.1L330.7 3071.2Z" fill="#28285c" stroke="#000000"></path><path d="M939.3 3336.1L991.7 3500L1015.7 3346.1Z" fill="#24254d" stroke="#000000"></path><path d="M0 2955.4L0 3080.2L166.3 3070.2Z" fill="#24254d" stroke="#000000"></path><path d="M166.3 3070.2L210.3 3200.1L330.7 3071.2Z" fill="#28285c" stroke="#000000"></path><path d="M0 3080.2L210.3 3200.1L166.3 3070.2Z" fill="#292a62" stroke="#000000"></path><path d="M680 3500L489.7 3367.1L415.7 3500Z" fill="#212242" stroke="#000000"></path><path d="M210.3 3200.1L489.7 3367.1L330.7 3071.2Z" fill="#24254d" stroke="#000000"></path><path d="M938.3 3500L991.7 3500L939.3 3336.1Z" fill="#24254d" stroke="#000000"></path><path d="M1427.3 3500L1462.3 3242.1L1346 3283.1Z" fill="#20203d" stroke="#000000"></path><path d="M1698.7 3500L1657.7 3177.2L1462.3 3242.1Z" fill="#292a62" stroke="#000000"></path><path d="M1738.7 3198.1L1920 3291.1L1920 3018.2Z" fill="#252652" stroke="#000000"></path><path d="M938.3 3500L939.3 3336.1L680 3500Z" fill="#28285c" stroke="#000000"></path><path d="M1015.7 3346.1L1338 3500L1346 3283.1Z" fill="#20203d" stroke="#000000"></path><path d="M680 3500L939.3 3336.1L589 3328.1Z" fill="#212242" stroke="#000000"></path><path d="M991.7 3500L1338 3500L1015.7 3346.1Z" fill="#24254d" stroke="#000000"></path><path d="M415.7 3500L489.7 3367.1L210.3 3200.1Z" fill="#2a2b67" stroke="#000000"></path><path d="M489.7 3367.1L680 3500L589 3328.1Z" fill="#28285c" stroke="#000000"></path><path d="M1338 3500L1427.3 3500L1346 3283.1Z" fill="#262757" stroke="#000000"></path><path d="M186.3 3500L415.7 3500L210.3 3200.1Z" fill="#262757" stroke="#000000"></path><path d="M1427.3 3500L1698.7 3500L1462.3 3242.1Z" fill="#232347" stroke="#000000"></path><path d="M0 3080.2L0 3341.1L210.3 3200.1Z" fill="#232347" stroke="#000000"></path><path d="M0 3341.1L186.3 3500L210.3 3200.1Z" fill="#2c2c6c" stroke="#000000"></path><path d="M1698.7 3500L1920 3500L1920 3291.1Z" fill="#252652" stroke="#000000"></path><path d="M0 3341.1L0 3500L186.3 3500Z" fill="#262757" stroke="#000000"></path></g></svg>