<svg id="visual" viewBox="0 0 1920 1080" width="1920" height="1080" xmlns="http://www.w3.org/2000/svg" xmlns:xlink="http://www.w3.org/1999/xlink" version="1.1"><g stroke-width="1" stroke-linejoin="bevel"><path d="M952.7 553.1L1000.3 592.1L986.3 495.9Z" fill="#1f1f38" stroke="#000000"></path><path d="M986.3 495.9L905.7 461.9L952.7 553.1Z" fill="#24254d" stroke="#000000"></path><path d="M879.7 767.4L982.3 753.4L1000.3 592.1Z" fill="#292a62" stroke="#000000"></path><path d="M879.7 767.4L1000.3 592.1L952.7 553.1Z" fill="#252652" stroke="#000000"></path><path d="M1213.8 540.1L1210.8 514.9L1000.3 592.1Z" fill="#292a62" stroke="#000000"></path><path d="M1000.3 592.1L1210.8 514.9L986.3 495.9Z" fill="#2a2b67" stroke="#000000"></path><path d="M986.3 495.9L1012.3 326.6L905.7 461.9Z" fill="#292a62" stroke="#000000"></path><path d="M1153.8 746.4L1213.8 540.1L1000.3 592.1Z" fill="#24254d" stroke="#000000"></path><path d="M1210.8 514.9L1012.3 326.6L986.3 495.9Z" fill="#252652" stroke="#000000"></path><path d="M982.3 753.4L1153.8 746.4L1000.3 592.1Z" fill="#1f1f38" stroke="#000000"></path><path d="M738.2 540.1L879.7 767.4L952.7 553.1Z" fill="#1f1f38" stroke="#000000"></path><path d="M982.3 753.4L1114.3 907.7L1153.8 746.4Z" fill="#212242" stroke="#000000"></path><path d="M769.2 358.6L738.2 540.1L905.7 461.9Z" fill="#292a62" stroke="#000000"></path><path d="M905.7 461.9L738.2 540.1L952.7 553.1Z" fill="#1f1f38" stroke="#000000"></path><path d="M1012.3 326.6L887.7 286.6L905.7 461.9Z" fill="#2c2c6c" stroke="#000000"></path><path d="M887.7 286.6L769.2 358.6L905.7 461.9Z" fill="#262757" stroke="#000000"></path><path d="M1311.4 434.9L1210.8 324.6L1210.8 514.9Z" fill="#1f1f38" stroke="#000000"></path><path d="M1210.8 514.9L1210.8 324.6L1012.3 326.6Z" fill="#252652" stroke="#000000"></path><path d="M1012.3 326.6L963.3 191.3L887.7 286.6Z" fill="#252652" stroke="#000000"></path><path d="M1153.8 746.4L1313.4 644.1L1213.8 540.1Z" fill="#292a62" stroke="#000000"></path><path d="M1213.8 540.1L1311.4 434.9L1210.8 514.9Z" fill="#262757" stroke="#000000"></path><path d="M1313.4 644.1L1311.4 434.9L1213.8 540.1Z" fill="#262757" stroke="#000000"></path><path d="M1430.4 173.3L1152.8 235.3L1210.8 324.6Z" fill="#2c2c6c" stroke="#000000"></path><path d="M1210.8 324.6L1152.8 235.3L1012.3 326.6Z" fill="#262757" stroke="#000000"></path><path d="M1152.8 235.3L963.3 191.3L1012.3 326.6Z" fill="#232347" stroke="#000000"></path><path d="M887.7 286.6L663.2 227.3L769.2 358.6Z" fill="#252652" stroke="#000000"></path><path d="M1430.4 173.3L1311.4 351.6L1508.9 272.6Z" fill="#212242" stroke="#000000"></path><path d="M1311.4 434.9L1311.4 351.6L1210.8 324.6Z" fill="#252652" stroke="#000000"></path><path d="M769.2 358.6L630.2 509.9L738.2 540.1Z" fill="#262757" stroke="#000000"></path><path d="M628.2 762.4L780.2 884.7L879.7 767.4Z" fill="#252652" stroke="#000000"></path><path d="M780.2 884.7L937.7 911.7L879.7 767.4Z" fill="#2c2c6c" stroke="#000000"></path><path d="M879.7 767.4L937.7 911.7L982.3 753.4Z" fill="#292a62" stroke="#000000"></path><path d="M1153.8 746.4L1476.4 771.4L1313.4 644.1Z" fill="#1f1f38" stroke="#000000"></path><path d="M937.7 911.7L1114.3 907.7L982.3 753.4Z" fill="#1f1f38" stroke="#000000"></path><path d="M1158.8 1080L1138.8 914.7L1114.3 907.7Z" fill="#292a62" stroke="#000000"></path><path d="M1114.3 907.7L1138.8 914.7L1153.8 746.4Z" fill="#212242" stroke="#000000"></path><path d="M628.2 762.4L879.7 767.4L738.2 540.1Z" fill="#20203d" stroke="#000000"></path><path d="M630.2 509.9L602.6 674.1L738.2 540.1Z" fill="#262757" stroke="#000000"></path><path d="M602.6 674.1L628.2 762.4L738.2 540.1Z" fill="#292a62" stroke="#000000"></path><path d="M602.6 674.1L599.6 722.4L628.2 762.4Z" fill="#292a62" stroke="#000000"></path><path d="M880.7 79.3L663.2 227.3L887.7 286.6Z" fill="#20203d" stroke="#000000"></path><path d="M769.2 358.6L506.6 363.6L630.2 509.9Z" fill="#2a2b67" stroke="#000000"></path><path d="M630.2 509.9L332.1 511.9L602.6 674.1Z" fill="#212242" stroke="#000000"></path><path d="M963.3 191.3L880.7 79.3L887.7 286.6Z" fill="#2a2b67" stroke="#000000"></path><path d="M944.7 0L880.7 79.3L963.3 191.3Z" fill="#20203d" stroke="#000000"></path><path d="M663.2 227.3L506.6 363.6L769.2 358.6Z" fill="#2a2b67" stroke="#000000"></path><path d="M267.1 798.4L489.6 903.7L599.6 722.4Z" fill="#232347" stroke="#000000"></path><path d="M1138.8 914.7L1476.4 771.4L1153.8 746.4Z" fill="#252652" stroke="#000000"></path><path d="M1313.4 644.1L1568.9 546.1L1311.4 434.9Z" fill="#262757" stroke="#000000"></path><path d="M812.7 1080L1019.3 1080L937.7 911.7Z" fill="#262757" stroke="#000000"></path><path d="M937.7 911.7L1019.3 1080L1114.3 907.7Z" fill="#1f1f38" stroke="#000000"></path><path d="M1138.8 914.7L1415.4 1010.7L1476.4 771.4Z" fill="#24254d" stroke="#000000"></path><path d="M812.7 1080L937.7 911.7L780.2 884.7Z" fill="#1f1f38" stroke="#000000"></path><path d="M1143.8 0L1039.3 0L1152.8 235.3Z" fill="#2a2b67" stroke="#000000"></path><path d="M1152.8 235.3L1039.3 0L963.3 191.3Z" fill="#20203d" stroke="#000000"></path><path d="M1039.3 0L944.7 0L963.3 191.3Z" fill="#2a2b67" stroke="#000000"></path><path d="M733.2 0L586.6 144.3L663.2 227.3Z" fill="#232347" stroke="#000000"></path><path d="M361.1 257.6L462.6 395.9L506.6 363.6Z" fill="#2c2c6c" stroke="#000000"></path><path d="M506.6 363.6L462.6 395.9L630.2 509.9Z" fill="#24254d" stroke="#000000"></path><path d="M1019.3 1080L1158.8 1080L1114.3 907.7Z" fill="#232347" stroke="#000000"></path><path d="M1430.4 173.3L1143.8 0L1152.8 235.3Z" fill="#2c2c6c" stroke="#000000"></path><path d="M1311.4 351.6L1430.4 173.3L1210.8 324.6Z" fill="#262757" stroke="#000000"></path><path d="M1508.9 272.6L1311.4 351.6L1311.4 434.9Z" fill="#2c2c6c" stroke="#000000"></path><path d="M1476.4 771.4L1568.9 546.1L1313.4 644.1Z" fill="#2c2c6c" stroke="#000000"></path><path d="M726.2 1080L780.2 884.7L489.6 903.7Z" fill="#232347" stroke="#000000"></path><path d="M726.2 1080L812.7 1080L780.2 884.7Z" fill="#212242" stroke="#000000"></path><path d="M733.2 0L663.2 227.3L880.7 79.3Z" fill="#292a62" stroke="#000000"></path><path d="M663.2 227.3L586.6 144.3L506.6 363.6Z" fill="#28285c" stroke="#000000"></path><path d="M1595.9 417.9L1508.9 272.6L1311.4 434.9Z" fill="#252652" stroke="#000000"></path><path d="M489.6 903.7L780.2 884.7L628.2 762.4Z" fill="#292a62" stroke="#000000"></path><path d="M489.6 903.7L628.2 762.4L599.6 722.4Z" fill="#262757" stroke="#000000"></path><path d="M944.7 0L733.2 0L880.7 79.3Z" fill="#232347" stroke="#000000"></path><path d="M1568.9 546.1L1595.9 417.9L1311.4 434.9Z" fill="#252652" stroke="#000000"></path><path d="M1595.9 417.9L1534.9 234.3L1508.9 272.6Z" fill="#2c2c6c" stroke="#000000"></path><path d="M1508.9 272.6L1534.9 234.3L1430.4 173.3Z" fill="#252652" stroke="#000000"></path><path d="M1430.4 173.3L1454.4 0L1143.8 0Z" fill="#20203d" stroke="#000000"></path><path d="M1476.4 771.4L1573.9 789.4L1568.9 546.1Z" fill="#212242" stroke="#000000"></path><path d="M1568.9 546.1L1726.5 559.1L1595.9 417.9Z" fill="#20203d" stroke="#000000"></path><path d="M1497.9 1006.7L1573.9 789.4L1476.4 771.4Z" fill="#28285c" stroke="#000000"></path><path d="M1158.8 1080L1415.4 1010.7L1138.8 914.7Z" fill="#212242" stroke="#000000"></path><path d="M299.1 581.1L599.6 722.4L602.6 674.1Z" fill="#2c2c6c" stroke="#000000"></path><path d="M216.5 410.9L332.1 511.9L462.6 395.9Z" fill="#28285c" stroke="#000000"></path><path d="M462.6 395.9L332.1 511.9L630.2 509.9Z" fill="#2c2c6c" stroke="#000000"></path><path d="M733.2 0L600.6 0L586.6 144.3Z" fill="#24254d" stroke="#000000"></path><path d="M586.6 144.3L361.1 257.6L506.6 363.6Z" fill="#252652" stroke="#000000"></path><path d="M1158.8 1080L1414.4 1080L1415.4 1010.7Z" fill="#2a2b67" stroke="#000000"></path><path d="M1415.4 1010.7L1497.9 1006.7L1476.4 771.4Z" fill="#24254d" stroke="#000000"></path><path d="M1414.4 1080L1497.9 1006.7L1415.4 1010.7Z" fill="#252652" stroke="#000000"></path><path d="M340.1 174.3L361.1 257.6L586.6 144.3Z" fill="#292a62" stroke="#000000"></path><path d="M216.5 410.9L299.1 581.1L332.1 511.9Z" fill="#262757" stroke="#000000"></path><path d="M332.1 511.9L299.1 581.1L602.6 674.1Z" fill="#20203d" stroke="#000000"></path><path d="M1605.9 0L1454.4 0L1430.4 173.3Z" fill="#2a2b67" stroke="#000000"></path><path d="M1823.5 743.4L1726.5 559.1L1573.9 789.4Z" fill="#252652" stroke="#000000"></path><path d="M1573.9 789.4L1726.5 559.1L1568.9 546.1Z" fill="#2a2b67" stroke="#000000"></path><path d="M1595.9 417.9L1717.5 252.6L1534.9 234.3Z" fill="#2c2c6c" stroke="#000000"></path><path d="M1534.9 234.3L1605.9 0L1430.4 173.3Z" fill="#232347" stroke="#000000"></path><path d="M1414.4 1080L1512.9 1080L1497.9 1006.7Z" fill="#232347" stroke="#000000"></path><path d="M1718.5 996.7L1823.5 743.4L1573.9 789.4Z" fill="#212242" stroke="#000000"></path><path d="M600.6 0L340.1 174.3L586.6 144.3Z" fill="#28285c" stroke="#000000"></path><path d="M361.1 257.6L216.5 410.9L462.6 395.9Z" fill="#232347" stroke="#000000"></path><path d="M1794.5 440.9L1717.5 252.6L1595.9 417.9Z" fill="#252652" stroke="#000000"></path><path d="M195.5 804.4L267.1 798.4L299.1 581.1Z" fill="#252652" stroke="#000000"></path><path d="M299.1 581.1L267.1 798.4L599.6 722.4Z" fill="#1f1f38" stroke="#000000"></path><path d="M489.6 903.7L438.6 1080L726.2 1080Z" fill="#232347" stroke="#000000"></path><path d="M301.1 993.7L438.6 1080L489.6 903.7Z" fill="#262757" stroke="#000000"></path><path d="M340.1 174.3L258.5 262.6L361.1 257.6Z" fill="#232347" stroke="#000000"></path><path d="M258.5 262.6L216.5 410.9L361.1 257.6Z" fill="#212242" stroke="#000000"></path><path d="M1726.5 559.1L1794.5 440.9L1595.9 417.9Z" fill="#1f1f38" stroke="#000000"></path><path d="M1920 636.1L1794.5 440.9L1726.5 559.1Z" fill="#20203d" stroke="#000000"></path><path d="M1661.5 0L1605.9 0L1534.9 234.3Z" fill="#252652" stroke="#000000"></path><path d="M267.1 798.4L301.1 993.7L489.6 903.7Z" fill="#20203d" stroke="#000000"></path><path d="M1718.5 996.7L1573.9 789.4L1497.9 1006.7Z" fill="#24254d" stroke="#000000"></path><path d="M89.5 535.1L195.5 804.4L299.1 581.1Z" fill="#20203d" stroke="#000000"></path><path d="M267.1 798.4L143.5 871.7L301.1 993.7Z" fill="#1f1f38" stroke="#000000"></path><path d="M1512.9 1080L1718.5 996.7L1497.9 1006.7Z" fill="#24254d" stroke="#000000"></path><path d="M1717.5 252.6L1661.5 0L1534.9 234.3Z" fill="#20203d" stroke="#000000"></path><path d="M1808.5 185.3L1661.5 0L1717.5 252.6Z" fill="#1f1f38" stroke="#000000"></path><path d="M301.1 993.7L310.1 1080L438.6 1080Z" fill="#232347" stroke="#000000"></path><path d="M165.5 1080L310.1 1080L301.1 993.7Z" fill="#2c2c6c" stroke="#000000"></path><path d="M1920 260.6L1717.5 252.6L1794.5 440.9Z" fill="#212242" stroke="#000000"></path><path d="M1920 260.6L1808.5 185.3L1717.5 252.6Z" fill="#292a62" stroke="#000000"></path><path d="M600.6 0L292.1 0L340.1 174.3Z" fill="#262757" stroke="#000000"></path><path d="M340.1 174.3L189.5 90.3L258.5 262.6Z" fill="#2c2c6c" stroke="#000000"></path><path d="M0 550.1L89.5 535.1L0 516.9Z" fill="#252652" stroke="#000000"></path><path d="M89.5 535.1L216.5 410.9L0 350.6Z" fill="#2c2c6c" stroke="#000000"></path><path d="M216.5 410.9L89.5 535.1L299.1 581.1Z" fill="#212242" stroke="#000000"></path><path d="M0 853.4L143.5 871.7L195.5 804.4Z" fill="#212242" stroke="#000000"></path><path d="M195.5 804.4L143.5 871.7L267.1 798.4Z" fill="#24254d" stroke="#000000"></path><path d="M1920 798.4L1920 636.1L1823.5 743.4Z" fill="#28285c" stroke="#000000"></path><path d="M1823.5 743.4L1920 636.1L1726.5 559.1Z" fill="#2c2c6c" stroke="#000000"></path><path d="M1512.9 1080L1757.5 1080L1718.5 996.7Z" fill="#252652" stroke="#000000"></path><path d="M1920 934.7L1920 798.4L1823.5 743.4Z" fill="#212242" stroke="#000000"></path><path d="M292.1 0L189.5 90.3L340.1 174.3Z" fill="#252652" stroke="#000000"></path><path d="M1920 636.1L1920 395.9L1794.5 440.9Z" fill="#20203d" stroke="#000000"></path><path d="M1920 934.7L1823.5 743.4L1718.5 996.7Z" fill="#2c2c6c" stroke="#000000"></path><path d="M1920 395.9L1920 260.6L1794.5 440.9Z" fill="#1f1f38" stroke="#000000"></path><path d="M1808.5 185.3L1920 0L1661.5 0Z" fill="#2c2c6c" stroke="#000000"></path><path d="M1920 260.6L1920 205.3L1808.5 185.3Z" fill="#24254d" stroke="#000000"></path><path d="M292.1 0L178.5 0L189.5 90.3Z" fill="#262757" stroke="#000000"></path><path d="M0 516.9L89.5 535.1L0 350.6Z" fill="#212242" stroke="#000000"></path><path d="M0 1080L165.5 1080L143.5 871.7Z" fill="#28285c" stroke="#000000"></path><path d="M143.5 871.7L165.5 1080L301.1 993.7Z" fill="#262757" stroke="#000000"></path><path d="M1757.5 1080L1920 934.7L1718.5 996.7Z" fill="#2c2c6c" stroke="#000000"></path><path d="M89.5 535.1L0 550.1L195.5 804.4Z" fill="#292a62" stroke="#000000"></path><path d="M216.5 410.9L258.5 262.6L0 350.6Z" fill="#212242" stroke="#000000"></path><path d="M0 350.6L258.5 262.6L0 121.3Z" fill="#212242" stroke="#000000"></path><path d="M0 121.3L258.5 262.6L189.5 90.3Z" fill="#2c2c6c" stroke="#000000"></path><path d="M0 550.1L0 853.4L195.5 804.4Z" fill="#262757" stroke="#000000"></path><path d="M0 853.4L0 855.7L143.5 871.7Z" fill="#28285c" stroke="#000000"></path><path d="M1757.5 1080L1920 1080L1920 934.7Z" fill="#2a2b67" stroke="#000000"></path><path d="M1920 205.3L1920 0L1808.5 185.3Z" fill="#2a2b67" stroke="#000000"></path><path d="M0 0L0 121.3L189.5 90.3Z" fill="#20203d" stroke="#000000"></path><path d="M0 855.7L0 1080L143.5 871.7Z" fill="#20203d" stroke="#000000"></path><path d="M178.5 0L0 0L189.5 90.3Z" fill="#2c2c6c" stroke="#000000"></path></g></svg>